<?xml version="1.0" standalone="no"?>
<!DOCTYPE svg PUBLIC "-//W3C//DTD SVG 20010904//EN"
 "http://www.w3.org/TR/2001/REC-SVG-20010904/DTD/svg10.dtd">
<svg version="1.0" xmlns="http://www.w3.org/2000/svg"
 width="332.000000pt" height="332.000000pt" viewBox="0 0 332.000000 332.000000"
 preserveAspectRatio="xMidYMid meet">

<g transform="translate(0.000000,332.000000) scale(0.100000,-0.100000)"
fill="#000000" stroke="none">
<path d="M1476 3309 c-455 -52 -875 -295 -1147 -661 -88 -119 -87 -116 -29
-110 61 6 95 -14 117 -66 12 -29 13 -43 4 -74 -16 -51 -45 -52 -67 0 -14 30
-18 33 -21 17 -10 -48 -14 -51 -34 -26 -10 13 -19 20 -19 16 0 -4 -6 -2 -13 4
-8 6 -17 7 -21 3 -4 -4 -15 2 -23 13 -15 20 -15 20 -10 -3 4 -19 3 -21 -8 -12
-18 15 -32 -8 -79 -121 -85 -207 -116 -368 -116 -605 l0 -170 31 -50 c33 -51
95 -160 131 -231 19 -38 20 -43 5 -57 -8 -9 -19 -16 -24 -16 -8 0 -46 62 -93
153 -14 26 -26 43 -28 38 -6 -18 47 -199 88 -304 82 -208 198 -385 367 -554
108 -109 133 -128 133 -99 0 7 10 26 22 42 13 15 17 25 10 20 -29 -17 -8 15
34 54 49 45 106 74 167 85 42 8 116 -15 139 -42 11 -13 8 -13 -15 2 -15 10
-30 15 -33 13 -2 -3 8 -13 23 -23 15 -10 38 -29 51 -42 25 -28 38 -24 44 12 5
25 5 25 -13 9 -18 -16 -19 -16 -19 4 0 11 -4 24 -10 27 -19 12 -10 33 44 101
29 38 67 92 85 121 17 28 43 58 56 67 25 16 58 69 50 78 -12 11 18 65 46 83
42 28 53 50 34 69 -14 14 -12 17 20 30 43 18 45 34 5 49 -16 6 -30 19 -30 28
0 9 25 56 56 105 31 49 67 110 80 136 27 53 167 274 201 317 2 2 13 5 26 6 30
2 34 38 8 64 -12 12 -21 34 -21 52 0 21 -4 28 -12 23 -39 -24 77 105 136 152
38 30 39 32 27 61 -10 25 -10 35 1 52 17 29 55 27 102 -5 22 -15 52 -26 72
-26 19 0 37 -4 40 -9 3 -5 33 -10 67 -10 34 -1 54 -3 45 -6 -10 -2 -18 -7 -18
-10 0 -3 8 -12 18 -19 16 -12 14 -16 -23 -46 -22 -18 -43 -32 -48 -30 -18 5
-109 -83 -129 -124 -11 -24 -24 -44 -29 -44 -5 0 -27 -24 -50 -52 -23 -29 -46
-52 -50 -51 -5 2 -8 0 -7 -5 3 -14 -20 -57 -41 -76 -11 -10 -30 -37 -41 -60
-11 -22 -56 -84 -100 -136 -44 -52 -80 -98 -80 -101 0 -4 5 -9 10 -11 15 -5
-11 -64 -71 -160 -27 -44 -49 -82 -49 -85 0 -3 -8 -17 -19 -31 -24 -35 -146
-234 -179 -292 -84 -152 -118 -209 -139 -238 -24 -32 -23 -52 2 -52 26 0 49
-73 26 -82 -5 -1 -18 -25 -28 -53 l-19 -50 -54 -6 c-48 -5 -121 -27 -96 -28 5
-1 3 -8 -4 -17 -12 -13 -9 -15 26 -10 21 2 52 9 67 15 36 14 37 14 37 -3 0
-23 -23 -35 -76 -40 -27 -2 -52 -5 -56 -5 -25 -3 1 -25 58 -51 246 -111 590
-165 836 -130 243 35 377 75 566 168 200 99 365 226 499 383 59 70 74 95 87
146 9 33 16 70 16 82 0 12 18 38 40 60 22 21 40 42 40 46 0 5 11 31 24 59 13
28 27 72 30 98 4 25 14 52 21 58 8 7 15 28 15 47 0 19 6 46 14 61 7 15 16 37
20 49 6 18 4 21 -14 16 -14 -4 -21 -13 -19 -27 2 -34 0 -44 -16 -60 -13 -13
-35 -14 -128 -9 -62 3 -112 6 -113 7 0 0 1 20 4 44 6 59 30 71 72 36 25 -21
38 -25 66 -21 20 3 42 11 50 18 21 17 17 50 -6 56 -10 3 -22 13 -25 23 -7 21
-48 21 -67 2 -7 -7 -18 -12 -25 -12 -7 0 -13 -6 -13 -12 0 -7 -5 -5 -11 6 -8
13 -13 15 -19 6 -4 -6 -7 7 -7 29 0 27 3 38 11 34 6 -3 5 0 -1 8 -8 7 -13 39
-13 75 0 60 0 61 33 70 25 8 33 16 35 37 2 19 9 27 23 27 10 0 19 4 19 8 0 21
58 32 166 32 l115 0 -6 103 c-9 130 -46 319 -86 433 -57 165 -175 379 -273
498 l-24 29 -61 -124 c-55 -110 -61 -119 -57 -81 2 23 0 40 -5 36 -5 -3 -9 4
-9 15 0 15 -6 21 -21 21 -19 0 -20 1 -3 17 11 11 19 14 21 7 5 -14 53 -5 53
10 0 6 3 21 6 34 5 17 2 22 -12 23 -16 0 -15 2 4 9 28 12 29 24 1 17 -12 -3
-33 -1 -47 4 -31 12 -56 -5 -32 -22 11 -7 7 -8 -14 -3 -22 5 -27 4 -21 -6 6
-9 2 -10 -15 -5 -20 6 -22 4 -17 -14 3 -14 0 -21 -9 -21 -8 0 -13 6 -11 13 1
6 -7 12 -18 12 -11 1 -25 4 -32 8 -6 4 -17 6 -25 4 -7 -2 -10 -2 -5 0 13 8 -4
23 -26 23 -18 0 -19 -2 -7 -10 9 -6 11 -10 3 -10 -7 0 -11 -6 -9 -12 1 -7 1
-10 -1 -5 -3 4 -11 7 -19 7 -8 0 -14 7 -14 15 0 17 -18 19 -39 6 -10 -7 -19
-4 -27 7 -7 9 -15 14 -19 10 -11 -10 36 -47 53 -41 10 4 13 2 8 -5 -4 -7 -14
-12 -22 -12 -8 0 -14 -6 -15 -12 0 -7 -4 -3 -9 10 -12 29 -28 29 -23 -1 3 -14
-2 -29 -11 -36 -9 -8 -16 -19 -16 -26 0 -17 -27 -38 -39 -31 -10 7 -3 22 37
86 27 42 28 59 5 67 -40 15 -403 231 -403 240 0 7 133 174 178 224 l44 48 -85
26 c-220 67 -455 89 -671 64z m472 -572 c22 -23 22 -24 3 -41 -18 -16 -18 -19
-3 -37 9 -10 24 -19 32 -19 9 0 21 -5 28 -12 6 -6 15 -8 19 -4 5 4 -7 21 -26
38 -21 18 -30 33 -24 39 11 11 157 -80 166 -104 3 -9 -3 -27 -14 -41 -11 -14
-19 -34 -18 -43 3 -36 -1 -54 -12 -47 -6 3 -24 -6 -40 -22 -21 -20 -29 -37
-29 -63 0 -19 -7 -43 -17 -53 -15 -17 -15 -18 8 -19 l24 -1 -26 -11 c-15 -7
-27 -16 -29 -22 -1 -5 -7 -16 -12 -23 -8 -10 -7 -17 5 -29 15 -15 14 -17 -9
-30 -26 -13 -87 -5 -139 17 -11 5 -45 14 -75 19 -82 14 -110 27 -110 51 0 23
26 68 50 87 13 10 13 12 -2 18 -25 10 -23 41 3 48 11 3 19 11 18 19 -3 28 2
36 41 63 46 32 50 45 15 45 -14 0 -28 6 -31 14 -11 28 16 54 93 90 68 33 76
39 61 50 -16 12 -16 13 0 28 23 22 25 22 50 -5z m837 -76 c3 -5 1 -12 -5 -16
-5 -3 -10 1 -10 9 0 18 6 21 15 7z m62 -7 c-3 -3 -12 -4 -19 -1 -8 3 -5 6 6 6
11 1 17 -2 13 -5z m30 -370 c35 -18 59 -35 54 -38 -8 -5 -145 56 -168 76 -24
19 -2 29 25 12 15 -10 55 -33 89 -50z m-259 -164 c3 -9 -1 -11 -12 -7 -10 4
-22 7 -27 7 -5 0 -9 4 -9 10 0 14 43 6 48 -10z m-1058 -10 c12 -8 11 -10 -7
-10 -13 0 -23 5 -23 10 0 13 11 13 30 0z m1200 -15 c11 -13 8 -15 -13 -15 -28
0 -44 15 -25 23 21 9 25 8 38 -8z m-986 -14 c38 -15 -1 -20 -45 -7 l-44 14 35
0 c19 0 44 -3 54 -7z m927 -78 c13 -16 12 -17 -3 -4 -17 13 -22 21 -14 21 2 0
10 -8 17 -17z m-426 -23 c-3 -5 -18 -10 -33 -10 -21 0 -24 2 -12 10 20 13 53
13 45 0z m-165 -19 c0 -6 -4 -13 -10 -16 -5 -3 -10 1 -10 9 0 9 5 16 10 16 6
0 10 -4 10 -9z m510 -46 c14 -8 40 -14 58 -15 40 0 115 -33 159 -69 31 -26 36
-27 100 -19 80 9 178 2 250 -18 61 -18 82 -37 63 -59 -7 -8 -18 -15 -24 -15
-6 0 -24 -7 -39 -15 -24 -12 -54 -15 -162 -14 -11 0 -42 1 -70 3 -46 3 -51 6
-63 37 -16 40 -45 73 -88 99 -33 21 -20 22 -182 -20 -32 -8 -33 -8 -27 23 6
29 3 33 -27 46 -18 8 -27 16 -20 19 7 2 12 10 12 18 0 18 28 17 60 -1z m-977
-166 c-6 -6 -7 3 -4 23 4 28 6 29 9 9 2 -13 0 -27 -5 -32z m-942 -140 c33 -17
22 -42 -31 -72 l-49 -28 -37 20 c-25 14 -42 17 -49 11 -7 -5 -15 -7 -18 -3
-33 32 60 97 127 88 21 -3 47 -10 57 -16z m219 -112 c-1 -13 -35 -57 -44 -57
-13 0 -5 44 10 61 17 19 34 17 34 -4z m-416 -321 c-5 -20 -1 -25 23 -31 27 -7
28 -7 6 -16 -13 -4 -23 -13 -23 -19 0 -14 -63 -13 -78 2 -18 18 -15 25 19 37
24 8 29 15 24 31 -5 16 -2 20 15 20 16 0 19 -4 14 -24z m-239 -91 c28 -35 31
-44 23 -72 -5 -18 -14 -33 -22 -33 -31 0 -94 105 -82 137 10 25 47 10 81 -32z
m619 -300 c48 -51 40 -74 -31 -89 -32 -7 -55 7 -28 18 18 7 20 26 2 26 -18 0
-67 24 -67 33 0 4 9 7 19 7 11 0 21 -3 24 -7 2 -5 2 -2 1 4 -3 13 22 32 44 33
7 0 23 -11 36 -25z m-84 -75 c0 -11 -4 -20 -9 -20 -5 0 -7 9 -4 20 3 11 7 20
9 20 2 0 4 -9 4 -20z m785 -240 c-3 -5 -11 -10 -16 -10 -6 0 -7 5 -4 10 3 6
11 10 16 10 6 0 7 -4 4 -10z m725 -219 c0 -5 -21 -17 -47 -27 -27 -9 -72 -27
-102 -40 -29 -13 -63 -24 -75 -24 -11 0 31 23 94 49 126 54 130 55 130 42z"/>
<path d="M2254 3165 c-9 -22 3 -44 29 -54 12 -5 29 -16 36 -24 7 -9 36 -30 64
-48 29 -18 76 -48 105 -66 80 -52 126 -31 89 41 -40 77 -304 200 -323 151z"/>
<path d="M1801 2014 c-31 -25 -91 -137 -91 -168 0 -20 13 -27 30 -16 28 17 40
-21 29 -95 -5 -37 -7 -70 -5 -72 2 -3 11 6 20 19 9 14 19 70 26 142 6 66 16
139 22 163 6 24 8 46 6 49 -3 3 -20 -7 -37 -22z m-49 -116 c-7 -7 -12 -8 -12
-2 0 6 3 14 7 17 3 4 9 5 12 2 2 -3 -1 -11 -7 -17z"/>
<path d="M1742 1789 c2 -6 8 -10 13 -10 5 0 11 4 13 10 2 6 -4 11 -13 11 -9 0
-15 -5 -13 -11z"/>
<path d="M1690 1589 c0 -5 5 -7 10 -4 6 3 10 8 10 11 0 2 -4 4 -10 4 -5 0 -10
-5 -10 -11z"/>
<path d="M3021 1581 c-12 -8 -11 -12 3 -27 15 -14 17 -27 11 -68 -5 -39 -3
-48 5 -39 16 14 25 113 12 113 -6 0 -12 7 -14 15 -2 10 -8 12 -17 6z"/>
<path d="M1512 1346 c-38 -42 -61 -90 -49 -102 3 -3 11 6 19 20 7 13 28 47 45
75 18 28 31 51 29 51 -2 0 -22 -20 -44 -44z"/>
<path d="M1540 1301 c0 -7 -4 -9 -10 -6 -5 3 -10 -2 -10 -12 0 -16 1 -16 17 0
9 9 14 20 10 23 -4 4 -7 2 -7 -5z"/>
<path d="M1430 1265 c0 -8 2 -15 4 -15 2 0 6 7 10 15 3 8 1 15 -4 15 -6 0 -10
-7 -10 -15z"/>
<path d="M875 403 c-27 -2 -54 -8 -61 -13 -6 -6 -24 -6 -45 0 l-34 9 28 -22
c15 -13 27 -27 27 -32 0 -6 17 -10 37 -10 34 0 38 -3 41 -28 l3 -28 24 23 c12
13 49 36 80 52 38 19 53 32 47 38 -12 12 -78 17 -147 11z"/>
<path d="M753 305 c-10 -22 -8 -27 10 -40 27 -19 30 -15 22 29 -8 42 -16 45
-32 11z"/>
</g>
</svg>
